<svg width="24" height="24" viewBox="0 0 24 24" fill="none" xmlns="http://www.w3.org/2000/svg">
<g id="&#235;&#179;&#128;&#237;&#152;&#149; &#236;&#149;&#132;&#236;&#157;&#180;&#236;&#189;&#152;">
<path id="Union" fill-rule="evenodd" clip-rule="evenodd" d="M16.5002 9.00024H7.50024L7.50024 15.0002H16.5002V9.00024ZM7.50024 8.00024C6.94796 8.00024 6.50024 8.44796 6.50024 9.00024V15.0002C6.50024 15.5525 6.94796 16.0002 7.50024 16.0002H16.5002C17.0525 16.0002 17.5002 15.5525 17.5002 15.0002V9.00024C17.5002 8.44796 17.0525 8.00024 16.5002 8.00024H7.50024ZM9.03131 11C9.03131 10.7239 9.25517 10.5 9.53131 10.5H14.5313C14.8075 10.5 15.0313 10.7239 15.0313 11C15.0313 11.2761 14.8075 11.5 14.5313 11.5H9.53131C9.25517 11.5 9.03131 11.2761 9.03131 11ZM9.53131 12.5C9.25517 12.5 9.03131 12.7239 9.03131 13C9.03131 13.2761 9.25517 13.5 9.53131 13.5H14.5313C14.8075 13.5 15.0313 13.2761 15.0313 13C15.0313 12.7239 14.8075 12.5 14.5313 12.5H9.53131Z" fill="white"/>
</g>
</svg>
