<svg width="24" height="25" viewBox="0 0 24 25" fill="none" xmlns="http://www.w3.org/2000/svg">
<g id="&#235;&#179;&#128;&#237;&#152;&#149; &#236;&#149;&#132;&#236;&#157;&#180;&#236;&#189;&#152;">
<path id="Union" fill-rule="evenodd" clip-rule="evenodd" d="M8.53521 9.07097C7.66346 9.9517 7.12512 11.1631 7.12512 12.5002C7.12512 15.1925 9.30765 17.375 11.9999 17.375C14.6922 17.375 16.8748 15.1925 16.8748 12.5002C16.8748 9.8079 14.6922 7.62537 11.9999 7.62537C11.7224 7.62537 11.5117 7.86094 11.5117 8.13849V8.29297V8.65582V9.51562C11.5117 9.79177 11.7356 10.0156 12.0117 10.0156C12.2879 10.0156 12.5117 9.79177 12.5117 9.51562V8.65887C14.2462 8.88775 15.619 10.2639 15.8428 12H15.0157C14.7395 12 14.5157 12.2239 14.5157 12.5C14.5157 12.7761 14.7395 13 15.0157 13H15.8428C15.6192 14.7363 14.2464 16.1126 12.5117 16.3415V15.5078C12.5117 15.2317 12.2879 15.0078 12.0117 15.0078C11.7356 15.0078 11.5117 15.2317 11.5117 15.5078V16.3445C9.76598 16.1251 8.38168 14.7442 8.15706 13H8.99612C9.27227 13 9.49612 12.7761 9.49612 12.5C9.49612 12.2239 9.27227 12 8.99612 12H8.15711C8.24593 11.3108 8.51583 10.6783 8.91754 10.1519L11.6464 12.8807C11.8417 13.076 12.1583 13.076 12.3535 12.8807C12.5488 12.6855 12.5488 12.3689 12.3535 12.1736L9.24818 9.06828C9.05291 8.87301 8.73633 8.87301 8.54107 9.06828C8.53964 9.0697 8.53822 9.07114 8.53681 9.07258L8.53521 9.07097Z" fill="white"/>
</g>
</svg>
