<svg width="30" height="30" viewBox="0 0 30 30" fill="none" xmlns="http://www.w3.org/2000/svg">
<g id="&#235;&#179;&#128;&#237;&#152;&#149; &#236;&#149;&#132;&#236;&#157;&#180;&#236;&#189;&#152;">
<path id="Union" fill-rule="evenodd" clip-rule="evenodd" d="M8.93294 9.81725C8.68886 9.57317 8.68886 9.17744 8.93294 8.93336C9.17702 8.68929 9.57274 8.68929 9.81682 8.93336L14.9999 14.1164L20.183 8.93336C20.427 8.68929 20.8228 8.68929 21.0668 8.93336C21.3109 9.17744 21.3109 9.57317 21.0668 9.81725L15.8838 15.0003L21.0668 20.1834C21.3109 20.4275 21.3109 20.8232 21.0668 21.0673C20.8228 21.3114 20.427 21.3114 20.183 21.0673L14.9999 15.8842L9.81682 21.0673C9.57274 21.3114 9.17701 21.3114 8.93294 21.0673C8.68886 20.8232 8.68886 20.4275 8.93294 20.1834L14.116 15.0003L8.93294 9.81725Z" fill="white"/>
</g>
</svg>
