<svg width="1" height="51" viewBox="0 0 1 51" fill="none" xmlns="http://www.w3.org/2000/svg">
<rect width="1" height="51" fill="#F5F5F5"/>
<path d="M-2049 -1644C-2049 -1645.1 -2048.1 -1646 -2047 -1646H706C707.105 -1646 708 -1645.1 708 -1644V653C708 654.105 707.105 655 706 655H-2047C-2048.1 655 -2049 654.105 -2049 653V-1644Z" fill="white"/>
<g clip-path="url(#clip0_167_559)">
<rect width="1280" height="2090" transform="translate(-639 -1550)" fill="#0C0C0F"/>
<path fill-rule="evenodd" clip-rule="evenodd" d="M-2.18557e-06 50.1191L0 0.119141L1 0.119141L0.999998 50.1191L-2.18557e-06 50.1191Z" fill="#666666"/>
</g>
<path d="M-2047 -1645H706V-1647H-2047V-1645ZM707 -1644V653H709V-1644H707ZM706 654H-2047V656H706V654ZM-2048 653V-1644H-2050V653H-2048ZM-2047 654C-2047.55 654 -2048 653.552 -2048 653H-2050C-2050 654.657 -2048.66 656 -2047 656V654ZM707 653C707 653.552 706.552 654 706 654V656C707.657 656 709 654.657 709 653H707ZM706 -1645C706.552 -1645 707 -1644.55 707 -1644H709C709 -1645.66 707.657 -1647 706 -1647V-1645ZM-2047 -1647C-2048.66 -1647 -2050 -1645.66 -2050 -1644H-2048C-2048 -1644.55 -2047.55 -1645 -2047 -1645V-1647Z" fill="black" fill-opacity="0.1"/>
<defs>
<clipPath id="clip0_167_559">
<rect width="1280" height="2090" fill="white" transform="translate(-639 -1550)"/>
</clipPath>
</defs>
</svg>
