<svg width="50" height="50" viewBox="0 0 50 50" fill="none" xmlns="http://www.w3.org/2000/svg">
<path fill-rule="evenodd" clip-rule="evenodd" d="M25 6.25C21.2916 6.25 17.6665 7.34967 14.5831 9.40994C11.4996 11.4702 9.09641 14.3986 7.67727 17.8247C6.25812 21.2508 5.88681 25.0208 6.61028 28.6579C7.33376 32.2951 9.11952 35.636 11.7418 38.2582C14.364 40.8805 17.7049 42.6662 21.3421 43.3897C24.9792 44.1132 28.7492 43.7419 32.1753 42.3227C35.6014 40.9036 38.5298 38.5004 40.5901 35.4169C42.6503 32.3335 43.75 28.7084 43.75 25C43.75 22.5377 43.265 20.0995 42.3227 17.8247C41.3805 15.5498 39.9994 13.4828 38.2583 11.7417C36.5172 10.0006 34.4502 8.61953 32.1753 7.67726C29.9005 6.73498 27.4623 6.25 25 6.25ZM25 40C22.0333 40 19.1332 39.1203 16.6665 37.472C14.1997 35.8238 12.2771 33.4811 11.1418 30.7402C10.0065 27.9994 9.70945 24.9834 10.2882 22.0736C10.867 19.1639 12.2956 16.4912 14.3934 14.3934C16.4912 12.2956 19.1639 10.867 22.0737 10.2882C24.9834 9.70944 27.9994 10.0065 30.7403 11.1418C33.4811 12.2771 35.8238 14.1997 37.472 16.6664C39.1203 19.1332 40 22.0333 40 25C40 28.9782 38.4197 32.7936 35.6066 35.6066C32.7936 38.4196 28.9783 40 25 40ZM25 13.7499C23.2595 13.7499 21.5903 14.4413 20.3596 15.672C19.1289 16.9027 18.4375 18.5719 18.4375 20.3124C18.4375 20.8097 18.635 21.2866 18.9867 21.6382C19.3383 21.9899 19.8152 22.1874 20.3125 22.1874C20.8098 22.1874 21.2867 21.9899 21.6383 21.6382C21.99 21.2866 22.1875 20.8097 22.1875 20.3124C22.1875 19.7561 22.3524 19.2124 22.6615 18.7499C22.9705 18.2873 23.4098 17.9269 23.9237 17.714C24.4376 17.5011 25.0031 17.4454 25.5487 17.5539C26.0943 17.6625 26.5954 17.9303 26.9887 18.3237C27.3821 18.717 27.6499 19.2181 27.7585 19.7637C27.867 20.3093 27.8113 20.8748 27.5984 21.3887C27.3855 21.9026 27.025 22.3419 26.5625 22.6509C26.1 22.9599 25.5563 23.1249 25 23.1249C24.5027 23.1249 24.0258 23.3224 23.6742 23.6741C23.3225 24.0257 23.125 24.5026 23.125 24.9999V28.7499C23.125 29.2472 23.3225 29.7241 23.6742 30.0757C24.0258 30.4273 24.5027 30.6249 25 30.6249C25.4973 30.6249 25.9742 30.4273 26.3258 30.0757C26.6775 29.7241 26.875 29.2472 26.875 28.7499V26.5749C28.3902 26.1324 29.6944 25.1571 30.5472 23.8288C31.4 22.5006 31.7439 20.9088 31.5155 19.3469C31.2872 17.785 30.502 16.3583 29.3046 15.3298C28.1072 14.3012 26.5784 13.7401 25 13.7499ZM25 36.25C23.9645 36.25 23.125 35.4105 23.125 34.375C23.125 33.3395 23.9645 32.5 25 32.5C26.0355 32.5 26.875 33.3395 26.875 34.375C26.875 35.4105 26.0355 36.25 25 36.25Z" fill="white"/>
</svg>
