<svg width="41" height="40" viewBox="0 0 41 40" fill="none" xmlns="http://www.w3.org/2000/svg">
<path fill-rule="evenodd" clip-rule="evenodd" d="M18.2268 10.1712C17.9126 9.85616 17.3988 9.85195 17.0793 10.1618C16.7598 10.4716 16.7555 10.9781 17.0698 11.2931C20.7865 15.0189 23.139 17.351 24.5604 18.7434C25.1297 19.3012 25.5512 19.7096 25.8519 19.9971C22.4236 23.324 20.2364 25.4694 18.9011 26.7943C18.1954 27.4946 17.7254 27.9679 17.4351 28.2663C17.2911 28.4144 17.1862 28.5246 17.1176 28.5999C17.0863 28.6341 17.0494 28.6755 17.0186 28.7146L17.0177 28.7157C17.0097 28.7258 16.9617 28.7859 16.9218 28.865C16.9093 28.8898 16.8845 28.9415 16.8652 29.0109C16.8518 29.0586 16.8048 29.2341 16.8686 29.449C16.9052 29.5727 16.979 29.7089 17.1074 29.8218C17.2338 29.933 17.3726 29.9862 17.4855 30.0089C17.6836 30.0489 17.8397 30.004 17.8841 29.9908C18.0707 29.9352 18.2221 29.8193 18.3229 29.6712L18.3246 29.6693C18.375 29.6141 18.465 29.5191 18.6063 29.3738C18.8867 29.0856 19.3489 28.6201 20.0523 27.9221C21.4583 26.527 23.8187 24.2125 27.5959 20.55C27.8615 20.2923 27.9092 19.8987 27.7371 19.5923C27.6736 19.4781 27.5841 19.3835 27.4783 19.3135L27.4765 19.3118C27.4204 19.2622 27.3241 19.1734 27.1768 19.0341C26.8844 18.7577 26.4122 18.302 25.7042 17.6084C24.2892 16.2223 21.9417 13.8951 18.2268 10.1712ZM17.4147 28.4592C17.4289 28.4549 17.4552 28.4473 17.4912 28.4403C17.4656 28.4453 17.4401 28.4516 17.4147 28.4592Z" fill="white"/>
<rect x="0.928711" y="0.5" width="39.5714" height="39" rx="11.5" stroke="white" stroke-opacity="0.2"/>
</svg>
