<svg width="230" height="230" viewBox="0 0 230 230" fill="none" xmlns="http://www.w3.org/2000/svg">
<g id="&#236;&#152;&#129;&#237;&#153;&#148; &#236;&#139;&#160;&#236;&#178;&#173;">
<g id="Group 6">
<g id="Group 2">
<g id="Group 3">
<path id="Rectangle 659" d="M55.0708 107.309C55.0708 101 60.185 95.886 66.4936 95.886L172.154 95.886C178.463 95.886 183.577 101 183.577 107.309L183.577 170.134C183.577 176.443 178.463 181.557 172.154 181.557L66.4936 181.557C60.185 181.557 55.0708 176.443 55.0708 170.134L55.0708 107.309Z" fill="#302E2E"/>
<g id="Mask group">
<path id="Rectangle 658" d="M55.0737 107.309C55.0737 101 60.1879 95.886 66.4965 95.886H172.157C178.466 95.886 183.58 101 183.58 107.309V110.164C183.58 116.473 178.466 121.587 172.157 121.587H66.4965C60.1879 121.587 55.0737 116.473 55.0737 110.164V107.309Z" fill="#302E2E"/>
<mask id="mask0_2813_1021" style="mask-type:alpha" maskUnits="userSpaceOnUse" x="55" y="95" width="129" height="27">
<path id="Rectangle 661" d="M55.0737 107.309C55.0737 101 60.1879 95.886 66.4965 95.886H172.157C178.466 95.886 183.58 101 183.58 107.309V110.164C183.58 116.473 178.466 121.587 172.157 121.587H66.4965C60.1879 121.587 55.0737 116.473 55.0737 110.164V107.309Z" fill="#D9D9D9"/>
</mask>
<g mask="url(#mask0_2813_1021)">
<path id="Rectangle 660" d="M73.7096 83.8043H90.371L66.4979 136.524H49.8364L73.7096 83.8043Z" fill="#737373"/>
<path id="Rectangle 662" d="M107.28 83.8043H123.942L100.069 136.524H83.4072L107.28 83.8043Z" fill="#737373"/>
<path id="Rectangle 663" d="M140.853 83.8043H157.515L133.641 136.524H116.98L140.853 83.8043Z" fill="#737373"/>
<path id="Rectangle 664" d="M174.424 83.8043H191.086L167.213 136.524H150.551L174.424 83.8043Z" fill="#737373"/>
</g>
</g>
</g>
<g id="Mask group_2">
<path id="Rectangle 658_2" d="M50.6386 74.3C49.0058 68.2064 52.622 61.9428 58.7157 60.31L160.776 32.963C166.87 31.3302 173.133 34.9465 174.766 41.0402L176.244 46.5569C177.877 52.6506 174.261 58.9141 168.167 60.5469L66.1068 87.8939C60.0131 89.5267 53.7496 85.9105 52.1168 79.8168L50.6386 74.3Z" fill="#302E2E"/>
<mask id="mask1_2813_1021" style="mask-type:alpha" maskUnits="userSpaceOnUse" x="50" y="32" width="127" height="57">
<path id="Rectangle 661_2" d="M50.6386 74.3C49.0058 68.2064 52.622 61.9428 58.7157 60.31L160.776 32.963C166.87 31.3302 173.133 34.9465 174.766 41.0402L176.244 46.5569C177.877 52.6506 174.261 58.9141 168.167 60.5469L66.1068 87.8939C60.0131 89.5267 53.7496 85.9105 52.1168 79.8168L50.6386 74.3Z" fill="#D9D9D9"/>
</mask>
<g mask="url(#mask1_2813_1021)">
<path id="Rectangle 660_2" d="M62.5553 46.7731L78.649 42.4608L69.2343 99.5633L53.1406 103.876L62.5553 46.7731Z" fill="#737373"/>
<path id="Rectangle 662_2" d="M94.983 38.0844L111.077 33.7721L101.662 90.8746L85.5683 95.1869L94.983 38.0844Z" fill="#737373"/>
<path id="Rectangle 663_2" d="M127.411 29.3951L143.505 25.0828L134.09 82.1854L117.996 86.4977L127.411 29.3951Z" fill="#737373"/>
<path id="Rectangle 664_2" d="M159.838 20.7061L175.932 16.3938L166.518 73.4963L150.424 77.8086L159.838 20.7061Z" fill="#737373"/>
</g>
</g>
</g>
<g id="Group 4">
<path id="Ellipse 2" d="M69.1601 187.351C46.6607 194.662 22.4949 182.349 15.1843 159.849C7.87382 137.35 20.1869 113.184 42.6864 105.874C65.1859 98.5631 89.3516 110.876 96.6622 133.376C103.973 155.875 91.6596 180.041 69.1601 187.351Z" fill="#505050"/>
<path id="Polygon 3" d="M40.1932 149.123C42.3435 149.58 43.1926 152.194 41.7217 153.827L28.0539 169.007C27.316 169.827 26.1751 170.087 25.3668 169.337C23.9403 168.013 21.6878 165.028 19.545 158.433C17.4022 151.838 17.4697 148.099 17.8455 146.189C18.0584 145.107 19.1347 144.647 20.2134 144.876L40.1932 149.123Z" fill="#747474"/>
<path id="Ellipse 3" d="M58.5703 154.76C54.0704 156.222 49.2373 153.76 47.7751 149.26C46.313 144.76 48.7757 139.927 53.2756 138.465C57.7755 137.003 62.6086 139.465 64.0707 143.965C65.5328 148.465 63.0702 153.298 58.5703 154.76Z" fill="#747474"/>
<path id="Polygon 4" d="M48.6789 132.434C48.9086 134.62 46.6856 136.235 44.6773 135.341L26.017 127.033C25.0096 126.584 24.4091 125.58 24.8728 124.579C25.6913 122.813 27.8345 119.749 33.4444 115.673C39.0544 111.597 42.6314 110.506 44.5638 110.273C45.6587 110.141 46.4285 111.023 46.5437 112.119L48.6789 132.434Z" fill="#747474"/>
<path id="Polygon 5" d="M67.1733 135.335C65.1651 136.229 62.942 134.614 63.1717 132.428L65.3069 112.114C65.4221 111.017 66.1919 110.135 67.2868 110.267C69.2192 110.5 72.7962 111.591 78.4062 115.667C84.0162 119.743 86.1593 122.808 86.9778 124.574C87.4415 125.574 86.841 126.579 85.8336 127.027L67.1733 135.335Z" fill="#747474"/>
<path id="Polygon 6" d="M70.1362 153.831C68.6652 152.197 69.5144 149.584 71.6646 149.127L91.6445 144.88C92.7232 144.651 93.7994 145.11 94.0123 146.192C94.3881 148.102 94.4557 151.841 92.3129 158.436C90.1701 165.031 87.9176 168.016 86.4911 169.341C85.6828 170.091 84.5419 169.83 83.804 169.011L70.1362 153.831Z" fill="#747474"/>
<path id="Polygon 7" d="M53.4503 162.349C54.5494 160.445 57.2973 160.445 58.3965 162.349L68.6096 180.038C69.161 180.993 69.0563 182.159 68.093 182.696C66.3929 183.644 62.8577 184.863 55.9234 184.863C48.989 184.863 45.4538 183.644 43.7537 182.696C42.7904 182.159 42.6858 180.993 43.2372 180.038L53.4503 162.349Z" fill="#747474"/>
</g>
<g id="Group 5">
<path id="Ellipse 4" d="M213.774 175.346C213.774 192.023 200.254 205.543 183.577 205.543C166.9 205.543 153.38 192.023 153.38 175.346C153.38 158.669 166.9 145.15 183.577 145.15C200.254 145.15 213.774 158.669 213.774 175.346Z" fill="black"/>
<path id="Union" fill-rule="evenodd" clip-rule="evenodd" d="M180.342 178.581V190.103C180.342 191.89 181.79 193.338 183.577 193.338C185.363 193.338 186.811 191.89 186.811 190.103V178.581L198.334 178.581C200.12 178.581 201.568 177.133 201.568 175.347C201.568 173.56 200.12 172.112 198.334 172.112L186.811 172.112V160.59C186.811 158.803 185.363 157.355 183.577 157.355C181.79 157.355 180.342 158.803 180.342 160.59V172.112L168.82 172.112C167.034 172.112 165.585 173.56 165.585 175.347C165.585 177.133 167.034 178.581 168.82 178.581L180.342 178.581Z" fill="white"/>
</g>
</g>
</g>
</svg>
